<!DOCTYPE svg PUBLIC "-//W3C//DTD SVG 1.1//EN" "http://www.w3.org/Graphics/SVG/1.1/DTD/svg11.dtd">
<!-- Uploaded to: SVG Repo, www.svgrepo.com, Transformed by: SVG Repo Mixer Tools -->
<svg height="800px" width="800px" version="1.1" id="Layer_1" xmlns="http://www.w3.org/2000/svg" xmlns:xlink="http://www.w3.org/1999/xlink" viewBox="-153.6 -153.6 819.20 819.20" xml:space="preserve" fill="#000000" transform="rotate(0)" stroke="#000000" stroke-width="0.00512">
<g id="SVGRepo_bgCarrier" stroke-width="0" transform="translate(0,0), scale(1)">
<path transform="translate(-153.6, -153.6), scale(25.6)" d="M16,28.11422391768013C18.512833819929362,27.85501287586251,21.091250242775846,28.53929517956376,23.400872603003556,27.515982556795354C25.919651677927213,26.39999993309051,28.56260377025208,24.752098186799707,29.463994664290812,22.14880033583673C30.35562361384906,19.573695857200164,28.290298320648798,16.984763013426868,27.98492486728521,14.276827948923803C27.66600851818801,11.44879966142442,29.497118563139885,8.070416363847146,27.633791917645276,5.919261919180752C25.770526263316757,3.7681778869771065,22.248996349596396,4.604539168335195,19.412033010179,4.379682718564492C17.12978135609809,4.198792469723512,14.95370084882629,4.377994884587168,12.692299281418448,4.7350058726619935C10.089599081587279,5.145898207484849,7.220877656122664,4.957042922759971,5.182049353460702,6.626192404766279C3.0307219970426282,8.38744269636898,1.4212351250936115,11.1329710325365,1.4820367367944538,13.91263200973461C1.5413252574653564,16.623119161219567,4.489342895363869,18.27992408377211,5.4920578000186016,20.79881640918652C6.574440751836815,23.517840628172365,5.146376285389544,27.479166924586973,7.548196279485131,29.15126329554798C9.925830594632052,30.806522107450146,13.118219748356843,28.41149358008019,16,28.11422391768013" fill="#ee8cdc" strokewidth="0"/>
</g>
<g id="SVGRepo_tracerCarrier" stroke-linecap="round" stroke-linejoin="round" stroke="#CCCCCC" stroke-width="2.048"/>
<g id="SVGRepo_iconCarrier"> <path style="fill:#BCCAD6;" d="M489.739,512H322.783c-9.217,0-16.696-7.479-16.696-16.696c0-9.217,7.479-16.696,16.696-16.696 c23.913,0,44.587-16.978,49.174-40.38c1.195-6.131,5.707-11.076,11.707-12.826c33.87-9.881,65.131-28.141,90.402-52.794 c4.293-4.185,10.489-5.739,16.26-4.108c5.761,1.652,10.195,6.261,11.619,12.077c2.979,12.162,4.489,24.543,4.489,36.814v77.913 C506.435,504.521,498.956,512,489.739,512z"/> <path style="fill:#E4E9EE;" d="M322.783,512H89.043c-46.032,0-83.478-37.446-83.478-83.478V283.826 c0-46.032,37.446-83.478,83.478-83.478c22.402,0,43.381,8.712,59.055,24.533c15.717,15.57,24.424,36.538,24.424,58.946v89.783 c25.153,24.206,55.924,42.054,89.37,51.793c6,1.75,10.522,6.696,11.717,12.826c4.587,23.403,25.262,40.381,49.174,40.381 c9.217,0,16.696,7.479,16.696,16.696C339.478,504.521,332,512,322.783,512z"/> <path style="fill:#BCCAD6;" d="M155.826,478.609c-9.217,0-16.696-7.479-16.696-16.696V317.217c0-9.217,7.479-16.696,16.696-16.696 s16.696,7.479,16.696,16.696v144.696C172.522,471.13,165.043,478.609,155.826,478.609z"/> <path style="fill:#E380A7;" d="M155.826,300.522H89.043c-9.217,0-16.696-7.479-16.696-16.696c0-9.217,7.479-16.696,16.696-16.696 h66.783c9.217,0,16.696,7.479,16.696,16.696C172.522,293.043,165.043,300.522,155.826,300.522z"/> <path style="fill:#AD3D25;" d="M501.902,380.391c-6.663-25.869-20.033-49.533-38.674-68.445c-3.316-3.348-7.88-5.261-12.576-4.956 c-4.696,0.196-9.098,2.359-12.12,5.967c-20.142,24.076-46.522,41.066-76.282,49.152c-12.824,3.476-16.643,19.92-6.598,28.695 c12.987,11.31,19.816,28.916,16.283,47.511c-1.957,10.275,5.943,19.816,16.402,19.816c11.136,0,66.303-19.913,109.055-61.63 C501.663,392.326,503.392,386.185,501.902,380.391z"/> <path style="fill:#BA4931;" d="M283.315,362.109c-65.239-17.717-110.793-77.37-110.793-145.065c0-9.223-7.479-16.696-16.696-16.696 s-16.696,7.473-16.696,16.696v163.511c0,4.359,1.706,8.544,4.75,11.664c43.795,44.842,102.136,65.913,113.348,65.913 c10.524,0,18.347-9.603,16.402-19.816c-3.524-18.544,3.259-36.168,16.283-47.511C299.959,382.029,296.14,365.585,283.315,362.109z"/> <path style="fill:#BCCAD6;" d="M452.826,141.837c-20.522-35.348-54.847-61.136-94.163-70.745 c-10.269-2.51-15.627-13.834-11.13-23.353C361.25,18.739,390.847,0,422.957,0h33.391c27.619,0,50.087,22.468,50.087,50.087v33.391 c0,23.848-10.239,46.62-28.087,62.462C470.472,152.939,458.11,150.952,452.826,141.837z"/> <path style="fill:#D1DAE4;" d="M167.217,145.94c-17.848-15.842-28.087-38.614-28.087-62.462V50.087 C139.13,22.468,161.598,0,189.217,0h33.391c32.109,0,61.706,18.739,75.424,47.74c4.497,9.519-0.861,20.843-11.13,23.353 c-39.315,9.609-73.641,35.397-94.163,70.745C187.455,150.952,175.093,152.939,167.217,145.94z"/> <path style="fill:#E380A7;" d="M177.38,104.983c-3.163-6.652-4.858-13.989-4.858-21.505V50.087c0-9.206,7.49-16.696,16.696-16.696 h33.391c12.403,0,24.185,4.663,33.195,12.625l5.297,50.912l-55.188,25.801L177.38,104.983z"/> <path style="fill:#D56D95;" d="M468.185,104.983c3.163-6.652,4.858-13.989,4.858-21.505V50.087c0-9.206-7.49-16.696-16.696-16.696 h-33.391c-12.403,0-24.185,4.663-33.195,12.625l-7.615,38.853l29.217,27.826L468.185,104.983z"/> <path style="fill:#E4E9EE;" d="M278.934,394.913c-1.457,0-2.935-0.196-4.381-0.587c-79.738-21.653-135.423-94.555-135.423-177.283 c0-32.424,8.555-64.239,24.75-92c25.043-43.136,67-74.631,115.086-86.386c28.695-6.989,58.946-6.983,87.62-0.006 c48.098,11.76,90.054,43.255,115.109,86.423c16.185,27.728,24.74,59.543,24.74,91.967c0,42.701-15,84.348-42.228,117.271 c-24.619,29.413-56.826,50.13-93.195,60.011c-5.424,1.446-11.185,0.119-15.391-3.554c-18.13-15.913-47.544-15.913-65.674,0 C286.859,393.468,282.935,394.913,278.934,394.913z"/> <path style="fill:#E5B436;" d="M322.783,512c-46.032,0-83.478-37.446-83.478-83.478s37.446-83.478,83.478-83.478 s83.478,37.446,83.478,83.478S368.815,512,322.783,512z"/> <path style="fill:#895F3A;" d="M322.783,445.217c-9.217,0-16.696-7.479-16.696-16.696v-66.783c0-9.217,7.479-16.696,16.696-16.696 s16.696,7.479,16.696,16.696v66.783C339.478,437.739,332,445.217,322.783,445.217z"/> <g> <path style="fill:#727295;" d="M389.565,244.87c-9.217,0-16.696,7.473-16.696,16.696c0,9.206-7.49,16.696-16.696,16.696 c-9.206,0-16.696-7.49-16.696-16.696c0-9.223-7.479-16.696-16.696-16.696s-16.696,7.473-16.696,16.696 c0,9.206-7.49,16.696-16.696,16.696c-9.206,0-16.696-7.49-16.696-16.696c0-9.223-7.479-16.696-16.696-16.696 s-16.696,7.473-16.696,16.696c0,27.619,22.468,50.087,50.087,50.087c12.875,0,24.509-5.018,33.391-13.027 c8.882,8.009,20.517,13.027,33.391,13.027c27.619,0,50.087-22.468,50.087-50.087C406.261,252.343,398.782,244.87,389.565,244.87z"/> <path style="fill:#727295;" d="M256,178.087c9.206,0,16.696,7.49,16.696,16.696c0,9.223,7.479,16.696,16.696,16.696 c9.217,0,16.696-7.473,16.696-16.696c0-27.619-22.468-50.087-50.087-50.087s-50.087,22.468-50.087,50.087 c0,9.223,7.479,16.696,16.696,16.696s16.696-7.473,16.696-16.696C239.304,185.577,246.794,178.087,256,178.087z"/> </g> <path style="fill:#696989;" d="M389.565,144.696c-27.619,0-50.087,22.468-50.087,50.087c0,9.223,7.479,16.696,16.696,16.696 c9.217,0,16.696-7.473,16.696-16.696c0-9.206,7.49-16.696,16.696-16.696c9.206,0,16.696,7.49,16.696,16.696 c0,9.223,7.479,16.696,16.696,16.696c9.217,0,16.696-7.473,16.696-16.696C439.652,167.164,417.184,144.696,389.565,144.696z"/> </g>
</svg>